<svg width="100" height="100" viewBox="0 0 100 100" fill="none" xmlns="http://www.w3.org/2000/svg">
<path d="M38.0509 20.4088C36.417 30.9133 38.8679 48.0872 37.234 57.9247C36.4171 56.4241 33.9662 53.1859 30.6984 51.9222C22.9374 48.9209 23.9436 56.4483 24.1628 57.9247C24.9798 63.4271 33.1493 73.4313 34.7832 75.9324C36.4171 78.4334 40.5018 78.9336 42.9527 75.9324C62.9678 50.9218 61.3339 53.923 62.5594 49.9214C63.7848 45.9197 62.1509 44.9192 61.3339 43.9188C60.517 42.9184 58.8831 42.9184 56.8407 43.9188C55.3237 44.6619 50.3052 52.4224 50.7136 49.9214C51.1221 47.4203 51.939 24.4105 48.2628 15.4067C44.7282 6.7497 38.5956 16.9073 38.0509 20.4088Z" stroke="white"/>
<path d="M50.4999 28.5C51.4999 71 48.4569 45.1591 45 45.1591C41.5431 45.1591 36.2408 41.3409 38 25C38 15.8873 41.5431 12.1591 45 12.1591C48.4569 12.1591 49.9999 21.5 50.4999 28.5Z" fill="white"/>
<path d="M45 38C45 49.0457 43.2091 58 41 58C38.7909 58 38 49.0457 38 38C38 26.9543 38.7909 18 41 18C43.2091 18 45 26.9543 45 38Z" fill="white"/>
<path d="M38 37H50V44.5V48.25L51 51L50 52V67H38V59.5L37.5 56.5L38 52V37Z" fill="white"/>
<path d="M53 51C73 34.5 46.5 75.5 39 78C34.3056 78 28 65.5376 28 62.5C28 59.4624 34.3056 56.5 39 56.5C43.6944 56.5 53 47.9624 53 51Z" fill="white"/>
<path d="M36.5 59.5C36.5 62.8137 33.7091 69 31.5 69C29.5 70.5 24.5 60.3137 24.5 57C24 53.5 25 48.5 30.5 52C36.5 54 36.5 56.1863 36.5 59.5Z" fill="white"/>
<path d="M62.5 47.5C62.5 50.2614 64 51 50.0001 66.5C48.6194 66.5 50.0001 54.5 52 51.5C45.5001 55.5 56.5 43 59 43.5C60.5 42.5 62.5 44.7386 62.5 47.5Z" fill="white"/>
<path d="M44.5 73.5C44.5 75 41 78 39.5 77.5C37.8431 77.5 36.5 76.3807 36.5 75C36.5 73.6193 37.8431 72.5 39.5 72.5C41.1569 72.5 44.5 71.5 44.5 73.5Z" fill="white"/>
</svg>
